<?xml version="1.0" encoding="utf-8"?>
<!-- Generator: Adobe Illustrator 19.2.1, SVG Export Plug-In . SVG Version: 6.00 Build 0)  -->
<svg version="1.1" id="Layer_1" xmlns="http://www.w3.org/2000/svg" xmlns:xlink="http://www.w3.org/1999/xlink" x="0px" y="0px"
	 viewBox="0 0 64 64" style="enable-background:new 0 0 64 64;" xml:space="preserve">
<style type="text/css">
	.st0{fill:#27AE60;}
</style>
<g id="Layer_2">
	<g>
		<g>
			<path class="st0" d="M57.1,17.5C49.1,3.6,31.4-1.1,17.5,6.9S-1.1,32.6,6.9,46.5s25.7,18.6,39.6,10.6S65.1,31.4,57.1,17.5
				L57.1,17.5z M43.6,52.1c-11.1,6.4-25.3,2.6-31.7-8.5s-2.6-25.3,8.5-31.7s25.3-2.6,31.7,8.5S54.7,45.7,43.6,52.1L43.6,52.1z"/>
			<path class="st0" d="M41.5,21.3L27.9,34.8l-5.4-5.4c-1.5-1.5-3.9-1.5-5.4,0s-1.5,3.9,0,5.4l8.1,8.1c1.5,1.5,3.9,1.5,5.4,0
				l16.2-16.2c1.5-1.5,1.5-3.9,0-5.4C45.4,19.8,42.9,19.8,41.5,21.3L41.5,21.3z"/>
		</g>
	</g>
</g>
<g id="Layer_3">
</g>
</svg>
